<svg id="Layer_1" data-name="Layer 1" xmlns="http://www.w3.org/2000/svg" viewBox="0 0 726.17 148.2"><defs><style>.cls-1,.cls-3{fill:#010101;}.cls-2{fill:none;stroke-width:2.83px;}.cls-2,.cls-3{stroke:#010101;stroke-miterlimit:10;}</style></defs><path class="cls-1" d="M715.76,384.37a25.79,25.79,0,0,1-5.31,9,21.59,21.59,0,0,1-8,5.44,26.55,26.55,0,0,1-9.78,1.81q-9.41,0-15.57-4.41a34.08,34.08,0,0,1-10-11.41l5.19-3.26a44,44,0,0,0,4.05,5.8,22.06,22.06,0,0,0,4.58,4.22,18.44,18.44,0,0,0,5.44,2.54,24.51,24.51,0,0,0,6.7.84,18.11,18.11,0,0,0,7.24-1.45,16.18,16.18,0,0,0,5.86-4.28,20.44,20.44,0,0,0,3.86-7.06,31.53,31.53,0,0,0,1.39-9.78V314.89h6.27v57A36.83,36.83,0,0,1,715.76,384.37Z" transform="translate(-75.19 -273.11)"/><path class="cls-1" d="M787.05,397.06a46,46,0,0,1-18.89,3.79,44.55,44.55,0,0,1-17.93-3.44,38.93,38.93,0,0,1-13.34-9.36,41.07,41.07,0,0,1-8.33-13.82,48.57,48.57,0,0,1-2.9-16.84v-.24a46.67,46.67,0,0,1,3-16.48,42.71,42.71,0,0,1,8.45-13.94,41.26,41.26,0,0,1,13.22-9.66,39.79,39.79,0,0,1,17.14-3.62,57.48,57.48,0,0,1,9.48.72,40.3,40.3,0,0,1,8,2.17,45.29,45.29,0,0,1,7,3.5,55,55,0,0,1,6.46,4.71l-4.11,4.71A45.71,45.71,0,0,0,782.94,322q-6.33-2.91-15.87-2.9a32.76,32.76,0,0,0-14.13,3,34.32,34.32,0,0,0-11,8.2,37.08,37.08,0,0,0-7.18,12.05,41.45,41.45,0,0,0-2.54,14.47v.24a44.93,44.93,0,0,0,2.48,15.18,34.14,34.14,0,0,0,7.18,12.06,33.55,33.55,0,0,0,11.41,7.95,37.8,37.8,0,0,0,15.15,2.89,39.48,39.48,0,0,0,7.84-.78,45.62,45.62,0,0,0,7.31-2.1,46.3,46.3,0,0,0,6.46-3.07,36.58,36.58,0,0,0,5.31-3.67V361.37H767.07V355.7h34.28v32.51A56.74,56.74,0,0,1,787.05,397.06Z" transform="translate(-75.19 -273.11)"/><line class="cls-2" x1="558.49" x2="558.49" y2="148.2"/><path class="cls-3" d="M135.47,344.1c12.31,3.81,21.22,14,21.22,25.77,0,14.95-14.42,27.45-32.24,27.45H75.69v-3.05l.16-97.45v-3.05h3.24l38.72-.16c18,0,32.4,12.51,32.4,27.46C150.21,330.52,144.38,339.06,135.47,344.1Zm-53.3-1.53,35.64-.15c14.09,0,25.92-9.46,25.92-21.35s-11.83-21.35-25.92-21.35H82.17Zm.16,5.95v42.85l42.12-.15c13.93,0,25.76-9.45,25.76-21.35s-11.83-21.35-25.76-21.35H82.33Z" transform="translate(-75.19 -273.11)"/><path class="cls-3" d="M236.07,347.6c8.26,6.71,14.9,16.78,24.14,45.76l1.29,4h-6.8l-.65-2.13c-10.69-32.94-17.17-39.81-27.05-46.67H185.85v48.8h-6.48v-3.05l.16-97.45v-3.05h3.24l45-.16c18.14,0,32.56,12.51,32.56,27.61C260.37,333.88,250.16,344.55,236.07,347.6Zm-18.63-5.18H228c14.09,0,25.92-9.3,25.92-21.2,0-12.05-11.83-21.5-26.08-21.5h-42v42.85C196.38,342.57,206.91,342.42,217.44,342.42Z" transform="translate(-75.19 -273.11)"/><path class="cls-3" d="M276.73,296.67v-3.06h6.48V397.32h-6.48V296.67Z" transform="translate(-75.19 -273.11)"/><path class="cls-3" d="M315.44,397.32H312.2V293.61h42.45c25.27,2.14,44.22,25.17,41.79,51.86,2.43,26.69-16.52,49.72-41.79,51.85H315.44Zm3.24-6.1h35.48c21.87-1.83,37.91-22.42,35.8-45.75v-.31c2.11-23-13.93-43.61-35.8-45.44H318.68Z" transform="translate(-75.19 -273.11)"/><path class="cls-3" d="M516.32,296.67v-3.06h6.48v97.61h58.32v6.1h-64.8V296.67Z" transform="translate(-75.19 -273.11)"/><polygon class="cls-1" points="421.83 119.73 376.47 22.13 375.53 20 370.67 20 369.73 22.12 324.37 119.72 321.91 124.71 330.17 124.71 338.73 106.27 338.72 106.27 344.74 93.21 344.72 93.21 373.1 32.36 401.47 93.21 401.43 93.21 407.84 107.05 415.08 122.58 416.03 124.71 424.28 124.71 421.83 119.73"/><path class="cls-1" d="M454.68,349.05a7.36,7.36,0,0,0-.76-.62H442.38a7.36,7.36,0,0,0-.76.62l-8.69,8.69L448.15,373l15.22-15.22Z" transform="translate(-75.19 -273.11)"/></svg>