<?xml version="1.0" encoding="utf-8"?>
<!-- Generator: Adobe Illustrator 24.3.0, SVG Export Plug-In . SVG Version: 6.00 Build 0)  -->
<svg version="1.1" id="Layer_1" xmlns="http://www.w3.org/2000/svg" xmlns:xlink="http://www.w3.org/1999/xlink" x="0px" y="0px"
	 viewBox="0 0 863.7 161.9" style="enable-background:new 0 0 863.7 161.9;" xml:space="preserve">
<style type="text/css">
	.st0{fill:#FFFFFF;}
	.st1{fill:#FFFFFF;stroke:#FFFFFF;stroke-width:7.68;stroke-miterlimit:10;}
</style>
<circle class="st0" cx="163.9" cy="14.2" r="14.2"/>
<circle class="st0" cx="228" cy="14.2" r="14.2"/>
<path class="st0" d="M759.6,122.4c-1.4,4.1-3.6,7.8-6.5,11c-2.7,2.9-6,5.2-9.7,6.6c-3.8,1.5-7.8,2.2-11.9,2.2c-7.6,0-14-1.8-19-5.4
	c-5.1-3.6-9.2-8.4-12.2-13.9l6.3-4c1.5,2.5,3.1,4.8,4.9,7c1.6,2,3.5,3.7,5.6,5.1c2,1.4,4.3,2.4,6.6,3.1c2.7,0.7,5.4,1,8.2,1
	c3,0,6-0.6,8.8-1.8c2.7-1.2,5.2-3,7.1-5.2c2.1-2.5,3.7-5.4,4.7-8.6c1.2-3.9,1.8-7.9,1.7-11.9V37.8h7.6v69.3
	C762,112.3,761.2,117.5,759.6,122.4z"/>
<path class="st0" d="M846.3,137.8c-7.3,3.2-15.1,4.7-23,4.6c-7.5,0.1-14.9-1.3-21.8-4.2c-6.2-2.6-11.7-6.5-16.2-11.4
	c-4.5-4.9-7.9-10.6-10.1-16.8c-2.4-6.6-3.6-13.5-3.5-20.5v-0.3c0-6.8,1.2-13.6,3.6-20.1c2.3-6.3,5.8-12,10.3-17
	c4.5-4.9,10-8.9,16.1-11.8c6.5-3,13.7-4.5,20.9-4.4c3.9,0,7.7,0.3,11.5,0.9c3.3,0.5,6.6,1.4,9.7,2.7c3,1.2,5.8,2.6,8.5,4.3
	c2.8,1.7,5.4,3.6,7.9,5.7l-5,5.7c-4.1-3.6-8.8-6.6-13.7-8.8c-5.1-2.3-11.6-3.5-19.3-3.5c-5.9-0.1-11.8,1.2-17.2,3.7
	c-5.1,2.4-9.7,5.8-13.4,10c-3.8,4.3-6.8,9.3-8.7,14.7c-2.1,5.6-3.1,11.6-3.1,17.6v0.3c-0.1,6.3,1,12.5,3,18.5
	c1.9,5.4,4.8,10.4,8.8,14.7c3.9,4.2,8.6,7.5,13.9,9.7c5.8,2.4,12.1,3.6,18.4,3.5c3.2,0,6.4-0.3,9.5-1c3-0.6,6-1.5,8.9-2.6
	c2.7-1,5.3-2.3,7.9-3.7c2.3-1.3,4.4-2.8,6.5-4.5V94.4H822v-6.9h41.7V127C858.5,131.5,852.6,135.1,846.3,137.8z"/>
<line class="st1" x1="666.3" y1="19.2" x2="666.3" y2="161.9"/>
<path class="st0" d="M0,141.5V32.8h49.1L62.5,83c1.8,7.7,3.3,15.4,4.5,23.1c1.4-9.3,3.1-18.2,5.1-26.6l12.3-46.6h49.2v108.6h-32.8
	V78.7c0.1-5.2,0.4-11.6,0.9-19.2c-1.7,7.3-3.1,13.2-4.3,17.5l-18,64.5H53.9L37.1,80.4C35,72.2,33.3,65.5,32,60.1
	c0.4,6,0.6,10.9,0.6,14.6v66.8H0z"/>
<path class="st0" d="M147.3,97.5V32.8h34.5v67.9c0,2.5,0.2,5,0.7,7.5c0.6,2.1,1.7,4.1,3.3,5.6c2.5,2.7,6.2,4,10.9,4
	c4,0.2,7.9-1.2,10.9-3.8c1.7-1.5,2.8-3.5,3.4-5.7c0.5-2.5,0.8-5,0.7-7.5V32.8h34.6v57.8c0,4.3-0.1,8-0.2,11
	c-0.2,3.3-0.7,6.7-1.4,9.9c-0.8,3.6-2.1,7.1-3.9,10.4c-1.9,3.5-4.3,6.7-7.2,9.4c-2.9,2.7-6.1,4.9-9.5,6.7c-4,2-8.2,3.6-12.5,4.6
	c-5,1.1-10,1.7-15.1,1.7c-7.4,0.1-14.7-1.1-21.7-3.5c-6-2-11.5-5.2-16.2-9.4c-3.1-3-5.6-6.5-7.4-10.4c-1.5-3.3-2.5-6.9-3-10.5
	C147.7,107.2,147.4,102.9,147.3,97.5z"/>
<path class="st0" d="M259.7,141.5V32.7H294v81.4h42v27.4H259.7z"/>
<path class="st0" d="M343.1,141.5V32.7h34.3v81.4h42v27.4H343.1z"/>
<path class="st0" d="M426.4,141.5V32.8h86v23.9h-51.6v16.2H509v23.6h-48.2v21.5H517v23.5H426.4z"/>
<path class="st0" d="M525.9,141.5V32.7h54.2c12.5,0,21.4,1.1,26.8,3.4c4.3,1.7,8,4.5,10.9,8.1c2.7,3.4,4.8,7.2,6,11.4
	c1.2,3.9,1.8,7.9,1.8,11.9c0,8.9-2.8,16.2-8.3,21.8c-1.7,1.9-3.7,3.4-5.9,4.7c-2.6,1.4-5.4,2.6-8.2,3.7l26.5,43.8h-38.1l-21.1-38.3
	h-10.2v38.3L525.9,141.5z M574.5,55.5h-14.2v25.4h14.3c4,0.1,8-0.7,11.7-2.3c3.3-1.5,4.9-5,4.9-10.3c0-5.4-1.6-8.8-4.9-10.5
	C582.7,56.1,578.6,55.3,574.5,55.5L574.5,55.5z"/>
</svg>
